<svg width="32" height="32" viewBox="0 0 32 32" fill="none" xmlns="http://www.w3.org/2000/svg">
<path fill-rule="evenodd" clip-rule="evenodd" d="M8.70711 7.29289C8.31658 6.90237 7.68342 6.90237 7.29289 7.29289C6.90237 7.68342 6.90237 8.31658 7.29289 8.70711L14.6918 16.106L7.29291 23.5049C6.90238 23.8954 6.90238 24.5286 7.29291 24.9191C7.68343 25.3097 8.3166 25.3097 8.70712 24.9191L16.106 17.5202L23.5049 24.9191C23.8955 25.3097 24.5286 25.3097 24.9191 24.9191C25.3097 24.5286 25.3097 23.8954 24.9191 23.5049L17.5202 16.106L24.9192 8.70711C25.3097 8.31658 25.3097 7.68342 24.9192 7.29289C24.5286 6.90237 23.8955 6.90237 23.5049 7.29289L16.106 14.6918L8.70711 7.29289Z" fill="white"/>
</svg>
