<svg width="15" height="15" viewBox="0 0 15 15" fill="none" xmlns="http://www.w3.org/2000/svg">
<path fill-rule="evenodd" clip-rule="evenodd" d="M1.70711 0.292893C1.31658 -0.0976311 0.683417 -0.0976311 0.292893 0.292893C-0.0976311 0.683418 -0.0976311 1.31658 0.292893 1.70711L5.66531 7.07952L0.292906 12.4519C-0.0976181 12.8424 -0.0976181 13.4756 0.292906 13.8661C0.683431 14.2567 1.3166 14.2567 1.70712 13.8661L7.07952 8.49373L12.4519 13.8661C12.8424 14.2567 13.4756 14.2567 13.8661 13.8661C14.2567 13.4756 14.2567 12.8424 13.8661 12.4519L8.49373 7.07952L13.8661 1.70711C14.2567 1.31658 14.2567 0.683418 13.8661 0.292893C13.4756 -0.0976311 12.8425 -0.0976311 12.4519 0.292893L7.07952 5.6653L1.70711 0.292893Z" fill="#585B5F" fill-opacity="0.8"/>
</svg>
