<svg width="20" height="20" viewBox="0 0 20 20" fill="none" xmlns="http://www.w3.org/2000/svg">
<path fill-rule="evenodd" clip-rule="evenodd" d="M4.87385 3.45989C4.48333 3.06936 3.85017 3.06936 3.45964 3.45989C3.06912 3.85041 3.06912 4.48357 3.45964 4.8741L8.58587 10.0003L3.45964 15.1266C3.06912 15.5171 3.06912 16.1502 3.45964 16.5408C3.85017 16.9313 4.48333 16.9313 4.87386 16.5408L10.0001 11.4145L15.1263 16.5408C15.5168 16.9313 16.15 16.9313 16.5405 16.5408C16.931 16.1502 16.931 15.5171 16.5405 15.1266L11.4143 10.0003L16.5405 4.8741C16.931 4.48357 16.931 3.85041 16.5405 3.45989C16.15 3.06936 15.5168 3.06936 15.1263 3.45989L10.0001 8.58611L4.87385 3.45989Z" fill="black"/>
</svg>
